# xmcd
#
# Track frame offsets: 
#        150
#        17333
#        34197
#        48255
#        67172
#        86015
#        102293
#        122000
#        146600
#        165441
#        184510
#        202737
#        219615
#        233634
#        250207
#        265117
#        283928
#        301442
#        318515
#        338001
#
# Disc length: 4760 seconds
#
# Revision: 0
# Processed by: cddbd v1.5.2PL0 Copyright (c) Steve Scherf et al.
# Submitted via: ExactAudioCopy v0.99pb5
#
DISCID=17129614
DTITLE=Валерия - Лучшее CD1
DYEAR=2009
DGENRE=Pop
TTITLE0=Неподконтрольно
TTITLE1=Нежность моя
TTITLE2=Часики
TTITLE3=Таю
TTITLE4=Мы вместе
TTITLE5=Была любовь
TTITLE6=Ты где-то там
TTITLE7=Не обижай меня
TTITLE8=Разрушить любовь
TTITLE9=Я лечу
TTITLE10=Метелица
TTITLE11=Обычные дела
TTITLE12=Полет
TTITLE13=Не обманывай
TTITLE14=Ключики
TTITLE15=Самолет
TTITLE16=Человек дождя( из сериала "Родные люди"
TTITLE17=Рига-Москва
TTITLE18=Ночь нежна
TTITLE19=Расставание(feat.Стас Пьеха)
EXTD=
EXTT0=
EXTT1=
EXTT2=
EXTT3=
EXTT4=
EXTT5=
EXTT6=
EXTT7=
EXTT8=
EXTT9=
EXTT10=
EXTT11=
EXTT12=
EXTT13=
EXTT14=
EXTT15=
EXTT16=
EXTT17=
EXTT18=
EXTT19=
PLAYORDER=
